:version 1.10
:name ASF
:units
  mass 1
  length 1
  angle deg
:documentation
  ASF file generated by Kaydara
:root
  axis xyz
  order  tx ty tz rx ry rz
  position 0 0 0
  orientation 0 0 0
:bonedata
  begin
    id 1
    name RightUpLegDummy
    direction -0.718183 -0.695806 0.00816078
    length 4.904
    axis 0 0 0 xyz
  end
  begin
    id 2
    name RightUpLeg
    direction 3.53989e-006 -0.995788 0.0916897
    length 17.4976
    axis -3.49089 -0.000906621 0.000287158 xyz
    dof rx ry rz
  end
  begin
    id 3
    name RightLeg
    direction 0.00371093 -0.995096 -0.0988418
    length 16.5821
    axis 3.68512 0.0193738 -0.131023 xyz
    dof rx ry rz
  end
  begin
    id 4
    name RightFoot
    direction 0.000791514 -0.46099 0.887405
    length 3.77069
    axis 4.84075e-005 -0.120479 -0.188788 xyz
    dof rx ry rz
  end
  begin
    id 5
    name RightToes
    direction 0.00124746 -0.014064 0.9999
    length 3.85082
    axis 0.00048216 0.542163 -0.142577 xyz
    dof rx ry rz
  end
  begin
    id 6
    name SpineDummy
    direction 8.3039e-015 1 4.57515e-016
    length 4.6813
    axis 0 0 0 xyz
  end
  begin
    id 7
    name Spine
    direction -4.63632e-008 0.999988 0.00495137
    length 10.1015
    axis -0.00138897 0.000121419 3.25764e-006 xyz
    dof rx ry rz
  end
  begin
    id 8
    name Spine1
    direction 0 0 0
    length 0
    axis -0.00138896 0.000121452 2.39764e-006 xyz
    dof rx ry rz
  end
  begin
    id 9
    name HEadDummy
    direction -3.91456e-008 0.999999 0.00127422
    length 3.43865
    axis -0.00138896 0.000121452 2.39764e-006 xyz
  end
  begin
    id 10
    name HEad
    direction -0.0222688 0.980941 0.193023
    length 5.12695
    axis -0.00138895 0.000121452 2.39764e-006 xyz
    dof rx ry rz
  end
  begin
    id 11
    name LeftShoulder1Dummy
    direction 0.998891 -0.0402508 -0.0244456
    length 3.5433
    axis -0.00138896 0.000121452 2.39764e-006 xyz
  end
  begin
    id 12
    name LeftShoulder1
    direction 0.99951 -0.000327743 0.0313091
    length 4.05031
    axis -0.00138896 0.000121452 2.39764e-006 xyz
    dof rx ry rz
  end
  begin
    id 13
    name LeftArm
    direction 0.998561 -0.00100054 -0.0536182
    length 10.3537
    axis -23.1894 0.134784 0.96751 xyz
    dof rx ry rz
  end
  begin
    id 14
    name LeftForeArm
    direction 0.998903 0.00866434 0.046012
    length 8.70632
    axis -9.91835 -0.06569 -0.177792 xyz
    dof rx ry rz
  end
  begin
    id 15
    name LeftHand
    direction 0.992938 -0.0411636 0.11126
    length 5.32135
    axis -0.00960227 -0.00340091 0.185174 xyz
    dof rx ry rz
  end
  begin
    id 16
    name RightShoulderDummy
    direction -0.998891 -0.0402509 -0.0244414
    length 3.5433
    axis -0.00138896 0.000121452 2.39764e-006 xyz
  end
  begin
    id 17
    name RightShoulder
    direction -0.99951 -0.000327827 0.0313133
    length 4.05031
    axis 0.215806 0.000203644 -0.00680151 xyz
    dof rx ry rz
  end
  begin
    id 18
    name RightArm
    direction -0.998573 -0.000999583 -0.053403
    length 10.3947
    axis -23.2009 -0.134239 -0.9641 xyz
    dof rx ry rz
  end
  begin
    id 19
    name RightForeArm
    direction -0.998898 0.00868026 0.0461306
    length 8.68355
    axis -9.92322 0.0658061 0.178869 xyz
    dof rx ry rz
  end
  begin
    id 20
    name RightHand
    direction -0.992843 -0.0414603 0.112003
    length 5.28593
    axis -0.00960634 0.00330671 -0.185226 xyz
    dof rx ry rz
  end
  begin
    id 21
    name LeftUpLegDummy
    direction 0.718183 -0.695806 0.00816078
    length 4.904
    axis 0 0 0 xyz
  end
  begin
    id 22
    name LeftUpLeg
    direction -6.8115e-006 -0.995793 0.0916336
    length 17.4976
    axis -3.48766 0.00143441 -0.000523914 xyz
    dof rx ry rz
  end
  begin
    id 23
    name LeftLeg
    direction -0.00601357 -0.995091 -0.0987824
    length 16.5821
    axis 3.68177 -0.00654038 -0.00028478 xyz
    dof rx ry rz
  end
  begin
    id 24
    name LeftFoot
    direction -0.00417578 -0.460984 0.887399
    length 3.77069
    axis 1.87232e-006 4.66002e-005 -8.1837e-006 xyz
    dof rx ry rz
  end
  begin
    id 25
    name LeftToes
    direction 0.00818058 -0.00485161 0.999955
    length 3.85048
    axis 1.06246e-005 4.65855e-005 -8.18502e-006 xyz
    dof rx ry rz
  end
:hierarchy
  begin
    root RightUpLegDummy SpineDummy LeftUpLegDummy
    RightUpLegDummy RightUpLeg
    RightUpLeg RightLeg
    RightLeg RightFoot
    RightFoot RightToes
    SpineDummy Spine
    Spine Spine1
    Spine1 HEadDummy LeftShoulder1Dummy RightShoulderDummy
    HEadDummy HEad
    LeftShoulder1Dummy LeftShoulder1
    LeftShoulder1 LeftArm
    LeftArm LeftForeArm
    LeftForeArm LeftHand
    RightShoulderDummy RightShoulder
    RightShoulder RightArm
    RightArm RightForeArm
    RightForeArm RightHand
    LeftUpLegDummy LeftUpLeg
    LeftUpLeg LeftLeg
    LeftLeg LeftFoot
    LeftFoot LeftToes
  end

:SAMPLES-PER-SECOND 30
:FRAME-RANGE 1-2775
:FULLY-SPECIFIED
:DEGREES
1
root  57.1273 40.0332 -12.3115 -176.752 -67.914 177.626
RightUpLeg  -5.22963 -1.03487 -0.917461
RightLeg  13.1827 1.15393 -0.224211
RightFoot  -8.61449 -0.110003 1.7951
RightToes  1.218e-010 1.26228e-014 -6.01869e-014
Spine  -8.8106 -1.23242 -1.06857
Spine1  11.6034 -1.25146 -0.193023
HEad  3.27807 -9.84966 14.9232
LeftShoulder1  1.24638 -1.04101 -22.6231
LeftArm  -12.5569 0.664576 -48.1527
LeftForeArm  28.7753 0.929344 -8.60581
LeftHand  -0.0463067 4.76341 4.60683
RightShoulder  1.11962 -0.133685 29.2773
RightArm  -25.4083 12.0139 44.3923
RightForeArm  34.3384 0.426848 3.96832
RightHand  -0.54869 -0.261526 -12.44
LeftUpLeg  -4.67889 2.64302 -0.163854
LeftLeg  9.46464 3.92586 1.43156
LeftFoot  -5.95231 0.151303 -2.27512
LeftToes  5.08156e-010 -6.90346e-011 -6.33378e-011
2
root  57.0384 40.0422 -12.3625 -176.995 -67.6625 177.584
RightUpLeg  -4.67686 -1.23595 -0.954739
RightLeg  12.9831 1.57541 -0.119885
RightFoot  -8.67946 -0.0985246 1.617
RightToes  1.218e-010 1.26228e-014 -6.01869e-014
Spine  -9.26154 -1.46882 -1.50966
Spine1  11.7027 -1.69933 0.590119
HEad  6.23085 -9.19213 8.7597
LeftShoulder1  1.19752 -0.673764 -24.1178
LeftArm  -14.7629 4.84936 -47.3644
LeftForeArm  20.8288 0.256755 -7.91236
LeftHand  -0.0868549 4.17896 6.71804
RightShoulder  1.16536 -0.138617 30.8168
RightArm  -25.7918 12.9984 43.2537
RightForeArm  34.1061 -4.13723 3.05298
RightHand  -0.573491 -0.382112 -13.3006
LeftUpLeg  -3.96384 2.76747 -0.150334
LeftLeg  9.05749 4.03471 1.43815
LeftFoot  -6.01924 0.151775 -2.28246
LeftToes  5.08156e-010 -6.90346e-011 -6.33378e-011
3
root  56.9373 40.0529 -12.393 -177.275 -67.2945 177.533
RightUpLeg  -4.10674 -1.55775 -1.08151
RightLeg  12.8211 2.24768 0.0717567
RightFoot  -8.75748 -0.0946984 1.55763
RightToes  1.218e-010 1.26228e-014 -6.01869e-014
Spine  -10.0814 -1.27551 -0.963006
Spine1  12.5838 -1.47055 0.251559
HEad  8.53235 -8.2003 3.14531
LeftShoulder1  1.4298 -1.49426 -23.8022
LeftArm  -16.0982 7.95984 -48.2336
LeftForeArm  16.0284 2.17565 -7.31862
LeftHand  -0.102927 3.31031 4.95523
RightShoulder  1.27479 0.256699 29.8068
RightArm  -26.3489 13.7812 43.9643
RightForeArm  42.8612 -5.96682 2.40186
RightHand  -0.508712 -1.2494 -14.1803
LeftUpLeg  -3.25021 2.93634 -0.163667
LeftLeg  8.76077 4.25715 1.42958
LeftFoot  -6.05527 0.146845 -2.20579
LeftToes  5.08156e-010 -6.90346e-011 -6.33378e-011
4
root  56.8328 40.0817 -12.4143 -176.873 -67.3195 177.246
RightUpLeg  -3.84697 -2.0314 -1.28308
RightLeg  12.3591 2.70002 0.158709
RightFoot  -8.71641 -0.0948991 1.56074
RightToes  1.218e-010 1.26228e-014 -6.01869e-014
Spine  -11.0021 -1.22488 -0.435026
Spine1  13.1074 -1.35687 -0.0789349
HEad  9.67612 -6.06658 -1.15544
LeftShoulder1  1.4789 -1.74855 -23.2475
LeftArm  -16.2533 9.94666 -49.0726
LeftForeArm  15.3992 5.03818 -7.16754
LeftHand  -0.081128 3.70392 4.45242
RightShoulder  1.36851 0.603298 29.029
RightArm  -26.1522 14.7848 44.036
RightForeArm  61.6723 -5.42164 2.37841
RightHand  -0.21597 -3.75713 -14.5788
LeftUpLeg  -2.8933 2.98132 -0.25849
LeftLeg  8.07798 4.21062 1.26339
LeftFoot  -5.88089 0.148053 -2.22458
LeftToes  5.08156e-010 -6.90346e-011 -6.33378e-011
5
root  56.738 40.1194 -12.4256 -176.57 -67.6018 177.188
RightUpLeg  -3.51917 -2.51275 -1.37409
RightLeg  11.5334 2.92135 0.16578
RightFoot  -8.54788 -0.0993435 1.69525
RightToes  1.218e-010 1.26228e-014 -6.01869e-014
Spine  -11.3214 -1.13483 0.0277952
Spine1  12.9279 -1.29531 -0.0575879
HEad  9.57368 -3.10869 -4.66862
LeftShoulder1  1.50541 -1.83542 -23.2706
LeftArm  -14.3342 10.7909 -49.0225
LeftForeArm  17.4724 7.2349 -8.06698
LeftHand  -0.0463678 4.44095 3.06302
RightShoulder  1.3704 0.646713 28.6837
RightArm  -25.2624 15.2884 43.7538
RightForeArm  82.256 -4.62238 2.47213
RightHand  0.134827 -6.8077 -12.8017
LeftUpLeg  -2.65218 2.92498 -0.299362
LeftLeg  7.28486 4.02606 1.14179
LeftFoot  -5.61032 0.142627 -2.1402
LeftToes  5.08156e-010 -6.90346e-011 -6.33378e-011
6
root  56.6659 40.1386 -12.429 -176.198 -68.0611 177.078
RightUpLeg  -3.39366 -2.75703 -1.43887
RightLeg  11.0417 2.74085 0.102336
RightFoot  -8.51529 -0.103299 1.84468
RightToes  1.218e-010 1.26228e-014 -6.01869e-014
Spine  -11.4049 -1.01509 0.501502
Spine1  12.8884 -1.16535 -0.198678
HEad  8.35301 0.0435465 -7.03618
LeftShoulder1  1.56163 -1.94566 -23.7522
LeftArm  -11.7741 10.6496 -48.3874
LeftForeArm  22.1305 7.46215 -9.61439
LeftHand  -0.0337328 4.75429 1.7418
RightShoulder  1.37711 0.681465 28.5469
RightArm  -24.2209 14.4715 43.6471
RightForeArm  93.6184 -4.16862 2.82938
RightHand  0.338762 -9.30255 -10.9912
LeftUpLeg  -2.66269 2.76486 -0.394851
LeftLeg  6.84251 3.72725 1.11524
LeftFoot  -5.49746 0.140894 -2.11325
LeftToes  5.08156e-010 -6.90346e-011 -6.33378e-011
7
root  56.6239 40.1392 -12.4292 -175.698 -68.5506 176.777
RightUpLeg  -3.48872 -2.98973 -1.5819
RightLeg  11.0182 2.50741 0.106556
RightFoot  -8.62572 -0.10518 1.9674
RightToes  1.218e-010 1.26228e-014 -6.01869e-014
Spine  -11.1439 -0.883918 0.80962
Spine1  12.9073 -0.988195 -0.421343
HEad  6.57548 2.59845 -9.07069
LeftShoulder1  1.62706 -2.07179 -24.2992
LeftArm  -9.09939 10.8127 -47.6984
LeftForeArm  27.4261 7.64206 -11.0461
LeftHand  -0.0287989 5.2195 0.84499
RightShoulder  1.37009 0.681378 28.3655
RightArm  -24.8476 11.9482 43.8893
RightForeArm  96.6396 -3.95518 2.39553
RightHand  0.462897 -10.9638 -10.4234
LeftUpLeg  -2.80929 2.65618 -0.515327
LeftLeg  6.68131 3.3717 1.05192
LeftFoot  -5.41374 0.133501 -1.98996
LeftToes  5.08156e-010 -6.90346e-011 -6.33378e-011
8
root  56.6008 40.127 -12.4404 -175.099 -69.1826 176.384
RightUpLeg  -3.75627 -3.03403 -1.67459
RightLeg  11.3082 1.93993 0.0265479
RightFoot  -8.86482 -0.105333 2.08954
RightToes  1.218e-010 1.26228e-014 -6.01869e-014
Spine  -10.6249 -0.882278 0.849918
Spine1  12.7335 -0.940943 -0.563325
HEad  3.97565 4.96855 -10.7273
LeftShoulder1  1.57431 -1.84146 -24.6431
LeftArm  -8.7828 11.6563 -47.5582
LeftForeArm  31.2865 7.6208 -11.2199
LeftHand  -0.0288791 5.50026 0.539072
RightShoulder  1.35987 0.657436 28.3121
RightArm  -25.5848 8.68253 43.9555
RightForeArm  92.6479 -4.1133 2.23104
RightHand  0.593444 -11.0014 -12.9249
LeftUpLeg  -3.1201 2.53132 -0.628513
LeftLeg  6.76659 2.87258 0.985552
LeftFoot  -5.45087 0.130112 -1.92893
LeftToes  5.08156e-010 -6.90346e-011 -6.33378e-011
9
root  56.5806 40.11 -12.4562 -174.681 -69.6298 176.132
RightUpLeg  -4.00295 -3.12672 -1.7357
RightLeg  11.6183 1.59784 0.0161351
RightFoot  -9.11031 -0.101865 2.05643
RightToes  1.218e-010 1.26228e-014 -6.01869e-014
Spine  -10.0979 -0.791162 0.858471
Spine1  12.6506 -0.828259 -0.636648
HEad  0.893005 6.6223 -12.4251
LeftShoulder1  1.41637 -1.29417 -24.8551
LeftArm  -9.37914 12.6907 -47.8177
LeftForeArm  30.1043 7.59043 -10.9236
LeftHand  -0.0307863 5.49433 -0.0518209
RightShoulder  1.30185 0.483254 28.35
RightArm  -26.2819 5.3428 44.0143
RightForeArm  84.7309 -4.47889 2.26729
RightHand  0.556862 -9.60098 -15.9453
LeftUpLeg  -3.43899 2.49829 -0.668571
LeftLeg  7.00094 2.4574 0.916692
LeftFoot  -5.57227 0.131104 -1.93743
LeftToes  5.08156e-010 -6.90346e-011 -6.33378e-011
10
root  56.5477 40.0985 -12.4827 -174.157 -70.0418 175.862
RightUpLeg  -4.28183 -3.10303 -1.74779
RightLeg  11.8481 1.14528 -0.0699698
RightFoot  -9.32942 -0.100495 2.11798
RightToes  1.218e-010 1.26228e-014 -6.01869e-014
Spine  -9.87671 -0.704939 0.868427
Spine1  12.6726 -0.709754 -0.733715
HEad  -1.80966 7.65914 -14.125
LeftShoulder1  1.30112 -0.87863 -25.1702
LeftArm  -10.0057 13.793 -47.8678
LeftForeArm  25.3565 7.58886 -10.5746
LeftHand  -0.0281419 5.18809 -0.0117537
RightShoulder  1.25157 0.28992 28.8027
RightArm  -26.9175 2.1248 43.9616
RightForeArm  76.1152 -4.86235 2.34069
RightHand  0.333404 -7.75298 -17.1984
LeftUpLeg  -3.76119 2.38248 -0.745198
LeftLeg  7.11739 2.15058 0.914422
LeftFoot  -5.63852 0.127092 -1.8714
LeftToes  5.08156e-010 -6.90346e-011 -6.33378e-011
11
root  56.4993 40.0934 -12.5174 -173.589 -70.5172 175.54
RightUpLeg  -4.44708 -3.24027 -1.79484
RightLeg  11.926 0.80616 -0.111696
RightFoot  -9.5053 -0.0991258 2.16128
RightToes  1.218e-010 1.26228e-014 -6.01869e-014
Spine  -9.69758 -0.678791 0.801918
Spine1  12.5351 -0.677949 -0.701582
HEad  -3.97479 8.30016 -15.7365
LeftShoulder1  1.21701 -0.572943 -25.4629
LeftArm  -11.2639 14.6771 -47.9475
LeftForeArm  21.724 7.5158 -9.93415
LeftHand  -0.0253604 4.77166 -0.0617893
RightShoulder  1.20435 0.109319 29.2636
RightArm  -27.1989 -0.983137 44.0952
RightForeArm  69.8936 -5.14495 2.53254
RightHand  0.16371 -6.63713 -16.7094
LeftUpLeg  -4.00029 2.27305 -0.805349
LeftLeg  7.10812 1.77759 0.873913
LeftFoot  -5.66566 0.128236 -1.90332
LeftToes  5.08156e-010 -6.90346e-011 -6.33378e-011
12
root  56.4433 40.0819 -12.5565 -173.369 -70.9571 175.473
RightUpLeg  -4.49677 -3.29212 -1.74323
RightLeg  12.0374 0.399354 -0.17316
RightFoot  -9.7305 -0.097639 2.24931
RightToes  1.218e-010 1.26228e-014 -6.01869e-014
Spine  -9.50025 -0.684817 0.842034
Spine1  12.3768 -0.677082 -0.752795
HEad  -5.32179 8.70834 -16.8958
LeftShoulder1  1.137 -0.32552 -25.3932
LeftArm  -11.8911 15.2842 -48.2254
LeftForeArm  20.4214 7.46491 -9.56774
LeftHand  -0.0263295 4.691 0.153646
RightShoulder  1.12491 -0.13341 29.4464
RightArm  -26.7947 -3.07571 44.6726
RightForeArm  67.9622 -5.29405 2.97958
RightHand  0.114365 -6.33639 -16.011
LeftUpLeg  -4.17408 2.2185 -0.780485
LeftLeg  7.25092 1.37878 0.865603
LeftFoot  -5.77577 0.119678 -1.78947
LeftToes  5.08156e-010 -6.90346e-011 -6.33378e-011
